<svg xmlns="http://www.w3.org/2000/svg" viewBox="0 0 129.5 24" enable-background="new 0 0 129.5 24"><style type="text/css">.st0{fill:#FFFFFF;}</style><title>white2Asset 6</title><g id="Layer_1-2"><path class="st0" d="M0 20.7V24h3.4C2 23.3.8 22.1 0 20.7zM0 0v12.7c1.5-2.6 4.3-4.3 7.5-4.2 4.4.2 8 3.8 8 8.2v.1H.5c0 .3 0 .6.1.9.4 2.7 2.9 5.2 5.5 5.6 3.9.6 7.2-2.1 7.7-5.7h1.5c-.3 2.8-2 5.1-4.4 6.4h13V0H0zM7.2 10c-3.3 0-6 2.4-6.6 5.5h13.1c-.5-3.1-3.2-5.5-6.5-5.5z"/></g><path class="st0" d="M40.9 18.8c-1.4 0-2.5-.4-3.4-1.3s-1.2-2.1-1.2-3.6c0-1.6.4-2.8 1.1-3.7s1.8-1.4 3.1-1.4c1.2 0 2.2.4 2.9 1.2s1.1 1.8 1.1 3.1v.9h-6.6c0 1.1.3 2 .9 2.6s1.3.9 2.3.9c1 0 2.1-.2 3.1-.7v1.3c-.5.2-1 .4-1.5.5s-1.1.2-1.8.2zm-.4-8.8c-.8 0-1.4.3-1.9.8s-.7 1.2-.8 2.1h5c0-.9-.2-1.6-.6-2.1s-.9-.8-1.7-.8zM49.1 18.6L45.4 9H47l2.1 5.7c.5 1.3.7 2.2.8 2.6h.1c.1-.3.3-1 .6-1.9s1.1-3.1 2.3-6.4h1.6l-3.7 9.6h-1.7zM60 18.8c-1.4 0-2.5-.4-3.4-1.3s-1.2-2.1-1.2-3.6c0-1.6.4-2.8 1.1-3.7s1.8-1.4 3.1-1.4c1.2 0 2.2.4 2.9 1.2s1.1 1.8 1.1 3.1v.9H57c0 1.1.3 2 .9 2.6s1.3.9 2.3.9c1 0 2.1-.2 3.1-.7v1.3c-.5.2-1 .4-1.5.5s-1.1.2-1.8.2zm-.4-8.8c-.8 0-1.4.3-1.9.8s-.6 1.2-.7 2.1h5c0-.9-.2-1.6-.6-2.1s-1-.8-1.8-.8zM70.5 8.8c.4 0 .8 0 1.2.1l-.2 1.4c-.4-.1-.8-.1-1.1-.1-.8 0-1.4.3-2 .9s-.8 1.4-.8 2.4v5.2h-1.5V9h1.2l.2 1.8h.1c.4-.6.8-1.1 1.3-1.5s1-.5 1.6-.5zM71.9 9h1.6l2.1 5.5c.5 1.3.8 2.2.9 2.7h.1c.1-.3.2-.8.5-1.5s1-2.9 2.4-6.7h1.6L77 20c-.4 1.1-.9 1.9-1.4 2.3s-1.2.7-2 .7c-.4 0-.9 0-1.3-.1v-1.2c.3.1.7.1 1.1.1 1 0 1.7-.6 2.1-1.7l.5-1.4L71.9 9zM90.3 18.6L88.6 13c-.1-.3-.3-1.1-.6-2.4h-.1c-.2 1-.4 1.8-.6 2.4l-1.8 5.6h-1.7L81.1 9h1.5c.6 2.4 1.1 4.3 1.4 5.5s.5 2.1.6 2.6h.1c.1-.3.2-.8.3-1.3s.3-1 .4-1.3L87.2 9h1.6l1.7 5.5c.3 1 .6 1.9.7 2.5h.1c0-.2.1-.5.2-1s.7-2.8 1.8-7.1h1.5l-2.7 9.6h-1.8zM104.8 13.8c0 1.6-.4 2.8-1.2 3.7s-1.9 1.3-3.3 1.3c-.9 0-1.6-.2-2.3-.6s-1.2-1-1.5-1.7-.5-1.6-.5-2.7c0-1.6.4-2.8 1.2-3.7s1.9-1.3 3.3-1.3c1.3 0 2.4.4 3.2 1.3s1.1 2.2 1.1 3.7zm-7.3 0c0 1.2.2 2.2.7 2.8s1.2 1 2.2 1 1.7-.3 2.2-1 .7-1.6.7-2.8c0-1.2-.2-2.2-.7-2.8s-1.2-1-2.2-1c-1 0-1.7.3-2.2.9s-.7 1.7-.7 2.9zM111.7 8.8c.4 0 .8 0 1.2.1l-.2 1.4c-.4-.1-.8-.1-1.1-.1-.8 0-1.4.3-2 .9s-.8 1.4-.8 2.4v5.2h-1.5V9h1.2l.2 1.8h.1c.4-.6.8-1.1 1.3-1.5s1-.5 1.6-.5zM121.3 17.3c-.8 1-1.8 1.5-3.1 1.5s-2.2-.4-2.9-1.3-1.1-2.1-1.1-3.7.4-2.8 1.1-3.7 1.7-1.3 2.9-1.3c1.3 0 2.3.5 3 1.4h.1l-.1-.7V4.9h1.5v13.7h-1.2l-.2-1.3zm-3 .3c1 0 1.7-.3 2.2-.8s.7-1.4.7-2.6v-.3c0-1.4-.2-2.3-.7-2.9s-1.2-.9-2.2-.9c-.9 0-1.5.3-2 1s-.7 1.6-.7 2.8c0 1.2.2 2.2.7 2.8s1.2.9 2 .9z"/></svg>