<svg xmlns="http://www.w3.org/2000/svg" viewBox="0 0 128 128" enable-background="new 0 0 128 128"><style type="text/css">.st0{fill:#FFFFFF;}</style><path class="st0" d="M55.1 50.6l.1-1.9-1.9.7 1.8 1.2zm10.6 6.6l.1-1.9-1.9.7 1.8 1.2zm2.6-6.9v1.9l1.9-.7-1.9-1.2zm-2.1-5.5l-1.9.7 1.8 1.2.1-1.9zm-9 11.3l1.9-.7-1.9-1.2v1.9zm36 12.7s-2.3-1.7-2.4-3.9c-.2-2.6.8-4.4.8-4.4-1.6 1.4-2.4 2.9-2.3 4.5 0 1.7 1.1 3.2 2 4.1l-33 11.3h-.4c-1.5 0-2.9-1.7-2.9-3.6 0-1.8 1.3-3.7 2.7-4.3l35.2-13-26-27.5-30.5 10.3c-1.5.6-2.6 2.2-2.6 4.1 0 1 .3 1.9.8 2.7l1.3 2c-.2-4 2.9-5 4.4-5.7l1.5 1.9c-1.1.5-4.5 1.6-4.3 5.1v.1c0 .7.2 1.4.6 2l10.4 15.9c-.2-2 1.9-4.9 5.2-5.6l1.4 1.8c-3.4 1.3-5.1 3.3-4.8 5.7v.1c0 .7.2 1.4.6 2l3.7 5.7c.8 1.1 2 1.8 3.3 1.8.2 0 .5-.1.7-.1l35.7-12.2-1.1-.8zm-38.4-9.6l.2-6.4-6.4-4 6.6-2.3.2-6.5 6.5 4.1 6.6-2.3-.2 6.4 6.4 4-6.6 2.3L68 61l-6.6-4.1-6.6 2.3zm2.8-15.5v1.9l1.9-.7-1.9-1.2zm8.4 9.4l.1-4.1-4.2-2.6-4.4 1.5-.1 4.1 4.2 2.6 4.4-1.5z"/></svg>