<svg xmlns="http://www.w3.org/2000/svg" viewBox="0 0 128 128" enable-background="new 0 0 128 128"><style type="text/css">.st0{fill:#FFFFFF;}</style><path class="st0" d="M93.7 70.2l-1.1-.8s-2.3-1.7-2.4-3.8c-.2-2.6.8-4.4.8-4.4-1.6 1.3-2.3 2.8-2.3 4.4.1 1.8 1.2 3.2 2 4.1l-24.5 8.4-2.2-2.7-3.6 1.6 1.9 2.4-3.9 1.3H58c-1.5 0-2.8-1.7-2.8-3.5s1.2-3.6 2.5-4.3l34.5-12.7-25.5-26.9-29.9 10.1c-1.5.6-2.5 2.2-2.5 4 0 1 .3 1.9.8 2.7l.3-.2-.3.2 1.3 2c-.2-3.9 2.8-4.9 4.3-5.6l1.5 1.8c-1.1.5-4.4 1.5-4.2 5v.1c0 .7.2 1.4.6 2L48.7 71c-.2-2 1.9-4.8 5.1-5.4l1.4 1.7c-3.3 1.3-5 3.2-4.7 5.5v.1c0 .7.2 1.4.6 2l3.6 5.5c.8 1.1 2 1.8 3.2 1.8.2 0 .5 0 .7-.1l4.5-1.5 2.1 2.6 1-2.2h2.5l-1.6-1.8 26.6-9zM54.9 53l-1.5-1.8 5.3-2-4-5.2 3.5-1.2 4 5.1 5-1.9 1.8 1.7-5.4 2 8 10.1-3.6 1.4L60.2 51l-5.3 2z"/></svg>